#!OML:ASF F:\VICON\USERDATA\INSTALL\rory3\rory3.ASF
:FULLY-SPECIFIED
:DEGREES
1261
root 9.23574 18.3437 7.85522 -177.319 -46.3983 180.806
lowerback 9.79612 5.37092 -5.09225
upperback 5.22707 5.782 -7.9287
thorax 0.317966 2.55803 -6.00564
lowerneck -6.36063 13.9554 -5.11926
upperneck 29.1532 18.2211 3.15474
head 9.46958 7.70616 3.47355
rclavicle -9.54166e-015 6.20208e-014
rhumerus -7.47388 49.5715 -84.3247
rradius 120.128
rwrist -18.6099
rhand -47.0193 6.55705
rfingers 7.12502
rthumb -19.7258 -22.4621
lclavicle -9.54166e-015 6.20208e-014
lhumerus -12.7793 -9.42758 79.4182
lradius 69.291
lwrist 105.677
lhand -29.7466 47.7249
lfingers 7.12502
lthumb -3.07277 437.683
rfemur -16.1035 7.04788 24.9189
rtibia 36.9333
rfoot -23.6457 -11.237
rtoes 3.20318
lfemur -20.9219 -0.975357 -8.88625
ltibia 43.976
lfoot -16.5252 3.81977
ltoes -5.17905
1262
root 9.25073 18.3453 7.81639 -177.61 -46.3317 181.022
lowerback 9.64972 5.50273 -5.03392
upperback 5.11392 5.99174 -7.82713
thorax 0.287533 2.67209 -5.93947
lowerneck -6.38558 14.2883 -5.19892
upperneck 29.4107 18.6577 3.3204
head 9.52169 7.90267 3.58238
rclavicle -7.95139e-015 9.22361e-014
rhumerus -8.29305 48.4554 -85.191
rradius 120.095
rwrist -19.7637
rhand -47.1017 5.79027
rfingers 7.12502
rthumb -19.8051 -23.2207
lclavicle -7.95139e-015 9.22361e-014
lhumerus -13.3984 -9.30854 79.6931
lradius 69.7879
lwrist 105.331
lhand -29.9536 48.1538
lfingers 7.12502
lthumb -3.27263 438.108
rfemur -15.7493 7.03114 25.2324
rtibia 36.7518
rfoot -23.8857 -11.0052
rtoes 4.17205
lfemur -21.1994 -1.3392 -8.98728
ltibia 45.1484
lfoot -16.4996 3.10843
ltoes -3.33111
1263
root 9.26113 18.343 7.77598 -177.87 -46.2179 181.31
lowerback 9.42149 5.60845 -4.69185
upperback 4.97847 6.1858 -7.93001
thorax 0.332543 2.78453 -6.24018
lowerneck -6.56967 14.6152 -4.91002
upperneck 29.7892 19.0506 3.47199
head 9.68772 8.10348 3.65996
rclavicle 3.97569e-015 -6.67916e-014
rhumerus -8.94713 47.1827 -86.2442
rradius 119.936
rwrist -20.9483
rhand -47.0323 5.00137
rfingers 7.12502
rthumb -19.7383 -24.0165
lclavicle 3.97569e-015 -6.67916e-014
lhumerus -13.9772 -9.27388 79.5905
lradius 70.3013
lwrist 104.934
lhand -29.997 48.8812
lfingers 7.12502
lthumb -3.31452 438.835
rfemur -15.4159 7.1376 25.5849
rtibia 36.4792
rfoot -24.1689 -10.7806
rtoes 5.70242
lfemur -21.506 -1.65391 -9.03385
ltibia 46.2592
lfoot -16.4176 2.62087
ltoes -1.68242
1264
root 9.26998 18.3302 7.73647 -178.185 -46.1099 181.702
lowerback 9.16283 5.7706 -4.32458
upperback 4.8375 6.46244 -8.00711
thorax 0.398489 2.94014 -6.53036
lowerneck -6.66127 14.9012 -4.51127
upperneck 30.1116 19.3626 3.61381
head 9.83421 8.28268 3.7055
rclavicle 1.20066e-013 -6.99722e-014
rhumerus -9.47591 45.7889 -86.9576
rradius 119.821
rwrist -22.3263
rhand -47.2392 4.90302
rfingers 7.12502
rthumb -19.9372 -24.0943
lclavicle 1.20066e-013 -6.99722e-014
lhumerus -14.4982 -9.24617 79.5629
lradius 70.6733
lwrist 104.432
lhand -31.084 49.7375
lfingers 7.12502
lthumb -4.36425 439.673
rfemur -15.1137 7.17801 25.978
rtibia 36.2131
rfoot -24.3998 -10.5042
rtoes 6.34626
lfemur -21.8323 -2.00928 -9.00048
ltibia 47.2905
lfoot -16.567 2.05507
ltoes -1.65879
1265
root 9.28523 18.3208 7.69369 -178.41 -45.9748 181.972
lowerback 8.96496 5.99671 -4.30315
upperback 4.69894 6.79044 -7.96686
thorax 0.386005 3.11127 -6.51212
lowerneck -6.7756 15.1748 -4.4082
upperneck 30.3189 19.6905 3.84159
head 9.90017 8.46134 3.81183
rclavicle 5.24792e-014 -9.54166e-015
rhumerus -10.0165 44.6254 -87.3973
rradius 119.72
rwrist -23.5174
rhand -47.4727 4.93711
rfingers 7.12502
rthumb -20.1616 -24.0367
lclavicle 5.24792e-014 -9.54166e-015
lhumerus -14.9789 -9.16813 79.759
lradius 70.9526
lwrist 103.897
lhand -33.0959 50.4823
lfingers 7.12502
lthumb -6.30678 440.368
rfemur -14.8903 7.3204 26.2806
rtibia 35.9738
rfoot -24.5185 -10.3973
rtoes 6.17671
lfemur -22.205 -2.30021 -9.04465
ltibia 48.2077
lfoot -16.6097 1.72924
ltoes -2.09815
1266
root 9.30505 18.3206 7.64543 -178.232 -45.742 181.702
lowerback 8.7409 6.30491 -4.74836
upperback 4.57987 7.16855 -8.03935
thorax 0.369723 3.2883 -6.35809
lowerneck -6.875 15.4027 -4.34157
upperneck 30.4279 19.947 4.12225
head 9.91853 8.61862 3.9264
rclavicle -2.94201e-014 3.18055e-015
rhumerus -10.5679 43.5227 -87.9801
rradius 119.459
rwrist -24.2968
rhand -47.4889 4.39746
rfingers 7.12502
rthumb -20.1772 -24.5747
lclavicle -2.94201e-014 3.18055e-015
lhumerus -15.3469 -9.09118 79.8996
lradius 71.1566
lwrist 103.378
lhand -33.8125 51.2917
lfingers 7.12502
lthumb -6.99858 441.156
rfemur -14.7303 7.56213 26.2399
rtibia 35.7644
rfoot -24.5611 -10.6343
rtoes 5.08228
lfemur -22.5308 -2.49432 -9.49652
ltibia 48.9803
lfoot -16.5118 1.73722
ltoes -2.45829
1267
root 9.31486 18.323 7.61393 -178.108 -45.614 181.453
lowerback 8.55302 6.52893 -4.95803
upperback 4.511 7.45927 -8.10001
thorax 0.404679 3.42846 -6.31429
lowerneck -7.02628 15.6403 -4.60844
upperneck 30.6791 20.1767 4.74979
head 9.91474 8.7613 4.19965
rclavicle -6.52014e-014 6.36111e-014
rhumerus -11.0046 42.5777 -88.3997
rradius 119.132
rwrist -24.9394
rhand -47.4451 3.93504
rfingers 7.12502
rthumb -20.1352 -25.0415
lclavicle -6.52014e-014 6.36111e-014
lhumerus -15.6681 -8.85535 80.1224
lradius 71.2513
lwrist 102.919
lhand -33.7721 51.8997
lfingers 7.12502
lthumb -6.95953 441.765
rfemur -14.5407 7.4764 26.1342
rtibia 35.598
rfoot -24.6589 -10.5614
rtoes 4.50188
lfemur -22.7919 -2.73809 -10.0044
ltibia 49.6406
lfoot -16.4295 1.90875
ltoes -2.85382
